HIERARCHY
ROOT Hips
{
  OFFSET 55.1429 91.6911 37.039
  CHANNELS 6 Xposition Yposition Zposition Zrotation Xrotation Yrotation
  JOINT spine
  {
    OFFSET 0 6.84637 0.3937
    CHANNELS 3 Zrotation Xrotation Yrotation
    JOINT spine1
    {
      OFFSET 0 9.49621 0
      CHANNELS 3 Zrotation Xrotation Yrotation
      JOINT spine2
      {
        OFFSET 0 9.09909 0
        CHANNELS 3 Zrotation Xrotation Yrotation
        JOINT Neck
        {
          OFFSET 0 23.3612 1.11378
          CHANNELS 3 Zrotation Xrotation Yrotation
          JOINT Head
          {
            OFFSET 0 7.05802 0
            CHANNELS 3 Zrotation Xrotation Yrotation
            End Site
            {
              OFFSET 0 17.0844 -5.63419
            }
          }
        }
        JOINT RightShoulder
        {
          OFFSET -3.83136 9.82631 -0.533491
          CHANNELS 3 Zrotation Xrotation Yrotation
          JOINT RightArm
          {
            OFFSET 0 12.8881 0
            CHANNELS 3 Zrotation Xrotation Yrotation
            JOINT RightArmRoll
            {
              OFFSET 0 6.50617 0
              CHANNELS 3 Zrotation Xrotation Yrotation
              JOINT RightForeArm
              {
                OFFSET 0 18.9501 0
                CHANNELS 3 Zrotation Xrotation Yrotation
                JOINT RightForeArmRoll
                {
                  OFFSET 0 7.30092 0
                  CHANNELS 3 Zrotation Xrotation Yrotation
                  JOINT RightHand
                  {
                    OFFSET 0 14.6514 0
                    CHANNELS 3 Zrotation Xrotation Yrotation
                    End Site
                    {
                      OFFSET 0 0 0
                    }
                  }
                }
              }
            }
          }
        }
        JOINT LeftShoulder
        {
          OFFSET 3.83136 9.82631 -0.533491
          CHANNELS 3 Zrotation Xrotation Yrotation
          JOINT LeftArm
          {
            OFFSET 0 12.8881 0
            CHANNELS 3 Zrotation Xrotation Yrotation
            JOINT LeftArmRoll
            {
              OFFSET 0 6.50617 0
              CHANNELS 3 Zrotation Xrotation Yrotation
              JOINT LeftForeArm
              {
                OFFSET 0 18.9501 0
                CHANNELS 3 Zrotation Xrotation Yrotation
                JOINT LeftForeArmRoll
                {
                  OFFSET 0 7.30093 0
                  CHANNELS 3 Zrotation Xrotation Yrotation
                  JOINT LeftHand
                  {
                    OFFSET 0 14.6514 0
                    CHANNELS 3 Zrotation Xrotation Yrotation
                    End Site
                    {
                      OFFSET 0 0 0
                    }
                  }
                }
              }
            }
          }
        }
      }
    }
  }
  JOINT RightUpLeg
  {
    OFFSET -6.06837 -1.11278 -0.933477
    CHANNELS 3 Zrotation Xrotation Yrotation
    JOINT RightUpLegRoll
    {
      OFFSET 0 17.1796 0
      CHANNELS 3 Zrotation Xrotation Yrotation
      JOINT RightLeg
      {
        OFFSET 0 -21.2743 0
        CHANNELS 3 Zrotation Xrotation Yrotation
        JOINT RightLegRoll
        {
          OFFSET 0 21.3439 0
          CHANNELS 3 Zrotation Xrotation Yrotation
          JOINT RightFoot
          {
            OFFSET 0 17.7652 0
            CHANNELS 3 Zrotation Xrotation Yrotation
            JOINT RightToeBase
            {
              OFFSET 0 14.8508 0
              CHANNELS 3 Zrotation Xrotation Yrotation
              End Site
              {
                OFFSET 0.0062947 7.19213 -0.829005
              }
            }
          }
        }
      }
    }
  }
  JOINT LeftUpLeg
  {
    OFFSET 6.06837 -1.11278 -0.933477
    CHANNELS 3 Zrotation Xrotation Yrotation
    JOINT LeftUpLegRoll
    {
      OFFSET 0 17.1797 0
      CHANNELS 3 Zrotation Xrotation Yrotation
      JOINT LeftLeg
      {
        OFFSET 0 21.2742 0
        CHANNELS 3 Zrotation Xrotation Yrotation
        JOINT LeftLegRoll
        {
          OFFSET 0 21.5412 0
          CHANNELS 3 Zrotation Xrotation Yrotation
          JOINT LeftFoot
          {
            OFFSET 0 17.5679 0
            CHANNELS 3 Zrotation Xrotation Yrotation
            JOINT LeftToeBase
            {
              OFFSET 0 14.8508 0
              CHANNELS 3 Zrotation Xrotation Yrotation
              End Site
              {
                OFFSET -0.0282102 7.19214 -0.829004
              }
            }
          }
        }
      }
    }
  }
}
MOTION
Frames: 8
Frame Time: 0.00208333
54.2832 58.6381 -5.2976 -1.8419 0.598462 -2.88143 0.244284 -1.06326 0.217827 0.490423 1.87712 0.409004 0.485952 3.52215 0.401056 2.64093 15.9268 0.121295 -3.13008 -5.55194 0.546559 75.2537 4.0492 -0.101622 98.9439 24.4665 -15.4274 1.19575e-006 -1.22606e-006 2.25525e-006 20.655 39.0358 -8.07354 -3.42296e-006 -8.58041e-006 -3 8.02898 -4.95084 0.697385 -60.7137 -4.00889 2.59601 -117.225 29.2625 6.42568 -1.21156e-005 -4.65218e-006 4.86973e-006 -20.5103 23.1875 5.16261 2.46719e-006 -1.0287e-005 2.99999 -8.02928 -4.95159 -0.697815 157.618 81.2248 25.2197 -180 1.52553e-005 178.767 177.891 73.9472 178.754 6.4777e-007 -6.66021e-007 1.70719 -17.7207 65.45 17.581 8.1365 25.2327 -3.48774 -107.563 72.2244 -74.0456 4.5067e-006 -1.99009e-005 -0.864863 4.84381 -79.8976 7.98451 -1.37498e-006 -4.95266e-006 -1.89836 18.3288 66.5241 -18.3581 -8.13649 25.2327 3.48774 
54.2831 58.6387 -5.29986 -1.83942 0.599862 -2.88079 0.244264 -1.06232 0.217659 0.49023 1.879 0.409382 0.485754 3.52403 0.401437 2.63594 15.9848 0.123114 -3.13339 -5.61224 0.545803 75.2477 4.06813 -0.0925242 98.9318 24.4569 -15.4317 1.19575e-006 -1.22606e-006 2.25525e-006 20.6565 39.0522 -8.07695 -3.42296e-006 -8.58041e-006 -3 8.02898 -4.95084 0.697385 -60.7111 -3.98594 2.58201 -117.208 29.2508 6.41738 -1.21156e-005 -4.65218e-006 4.86973e-006 -20.5138 23.2041 5.16724 2.46719e-006 -1.0287e-005 2.99999 -8.02928 -4.95159 -0.697815 157.603 81.2262 25.2344 -180 1.52553e-005 178.767 177.892 73.9486 178.754 6.4777e-007 -6.66021e-007 1.70721 -17.7203 65.4495 17.5813 8.1365 25.2327 -3.48774 -107.565 72.2254 -74.0437 4.5067e-006 -1.99009e-005 -0.864901 4.84783 -79.8984 7.98793 -1.37498e-006 -4.95266e-006 -1.89836 18.3284 66.5236 -18.3577 -8.13649 25.2327 3.48774 
54.2385 58.6589 -5.28702 -1.8369 0.601009 -2.88009 0.244216 -1.06139 0.217474 0.489968 1.88088 0.409776 0.485487 3.52591 0.401836 2.63187 16.0439 0.124656 -3.13764 -5.67338 0.544943 75.2424 4.08727 -0.0834351 98.919 24.4474 -15.4356 1.19575e-006 -1.22606e-006 2.25525e-006 20.6578 39.0682 -8.08021 -3.42296e-006 -8.58041e-006 -3 8.02898 -4.95084 0.697385 -60.708 -3.96289 2.56791 -117.192 29.2388 6.40867 -1.21156e-005 -4.65218e-006 4.86973e-006 -20.5169 23.2207 5.17185 2.46719e-006 -1.0287e-005 2.99999 -8.02928 -4.95159 -0.697815 157.588 81.2272 25.2485 -180 1.52553e-005 178.767 177.893 73.95 178.753 6.4777e-007 -6.66021e-007 1.70724 -17.72 65.449 17.5816 8.1365 25.2327 -3.48774 -107.568 72.2262 -74.0406 4.5067e-006 -1.99009e-005 -0.864957 4.85195 -79.8991 7.99144 -1.37498e-006 -4.95266e-006 -1.89835 18.328 66.523 -18.3572 -8.13649 25.2327 3.48774 
54.2472 58.6532 -5.29056 -1.83435 0.60198 -2.87936 0.244146 -1.06045 0.217278 0.489656 1.88275 0.410183 0.48517 3.52778 0.402249 2.62847 16.1035 0.126005 -3.14256 -5.73511 0.544012 75.2375 4.10656 -0.0743521 98.9058 24.4379 -15.439 1.19575e-006 -1.22606e-006 2.25525e-006 20.659 39.0841 -8.08336 -3.42296e-006 -8.58041e-006 -3 8.02898 -4.95084 0.697385 -60.7044 -3.93977 2.55374 -117.176 29.2267 6.3997 -1.21156e-005 -4.65218e-006 4.86973e-006 -20.5198 23.2373 5.17645 2.46719e-006 -1.0287e-005 2.99999 -8.02928 -4.95159 -0.697815 157.574 81.228 25.2623 -180 1.52553e-005 178.767 177.894 73.9513 178.753 6.4777e-007 -6.66021e-007 1.70727 -17.7197 65.4486 17.5819 8.1365 25.2327 -3.48774 -107.571 72.227 -74.0366 4.5067e-006 -1.99009e-005 -0.865027 4.85617 -79.8998 7.99502 -1.37498e-006 -4.95266e-006 -1.89835 18.3275 66.5225 -18.3568 -8.13649 25.2327 3.48774 
54.2417 58.6575 -5.29079 -1.83179 0.602849 -2.87861 0.244065 -1.05952 0.217074 0.489317 1.88462 0.410597 0.484826 3.52964 0.402668 2.62544 16.1636 0.127244 -3.14785 -5.79717 0.543039 75.2328 4.12594 -0.0652724 98.8923 24.4284 -15.4423 1.19575e-006 -1.22606e-006 2.25525e-006 20.6602 39.0999 -8.08645 -3.42296e-006 -8.58041e-006 -3 8.02898 -4.95084 0.697385 -60.7007 -3.91661 2.53953 -117.161 29.2145 6.39056 -1.21156e-005 -4.65218e-006 4.86973e-006 -20.5225 23.2539 5.18104 2.46719e-006 -1.0287e-005 2.99999 -8.02928 -4.95159 -0.697815 157.56 81.2287 25.2758 -180 1.52553e-005 178.767 177.894 73.9527 178.752 6.4777e-007 -6.66021e-007 1.7073 -17.7194 65.4482 17.5822 8.1365 25.2327 -3.48774 -107.575 72.2278 -74.0321 4.5067e-006 -1.99009e-005 -0.865104 4.86042 -79.9005 7.99863 -1.37498e-006 -4.95266e-006 -1.89834 18.3271 66.5219 -18.3564 -8.13649 25.2327 3.48774 
54.2293 58.6534 -5.28995 -1.82923 0.603694 -2.87786 0.24398 -1.05859 0.216869 0.488971 1.88649 0.411013 0.484474 3.53151 0.40309 2.62249 16.2238 0.128456 -3.15324 -5.85932 0.542057 75.2283 4.14534 -0.0561933 98.8787 24.419 -15.4455 1.19575e-006 -1.22606e-006 2.25525e-006 20.6614 39.1156 -8.08953 -3.42296e-006 -8.58041e-006 -3 8.02898 -4.95084 0.697385 -60.6968 -3.89344 2.52531 -117.145 29.2023 6.38139 -1.21156e-005 -4.65218e-006 4.86973e-006 -20.5252 23.2706 5.18562 2.46719e-006 -1.0287e-005 2.99999 -8.02928 -4.95159 -0.697815 157.546 81.2293 25.2893 -180 1.52553e-005 178.767 177.895 73.954 178.751 6.4777e-007 -6.66021e-007 1.70734 -17.7191 65.4477 17.5825 8.1365 25.2327 -3.48774 -107.58 72.2285 -74.0274 4.5067e-006 -1.99009e-005 -0.865183 4.8647 -79.9012 8.00226 -1.37498e-006 -4.95266e-006 -1.89833 18.3267 66.5214 -18.3559 -8.13649 25.2327 3.48774 
54.265 58.6322 -5.29262 -1.82668 0.604589 -2.87711 0.243902 -1.05765 0.216667 0.488639 1.88836 0.411425 0.484136 3.53338 0.403508 2.61936 16.2838 0.129724 -3.15844 -5.9213 0.541095 75.2235 4.16469 -0.0471118 98.8653 24.4095 -15.4488 1.19575e-006 -1.22606e-006 2.25525e-006 20.6626 39.1314 -8.09265 -3.42296e-006 -8.58041e-006 -3 8.02898 -4.95084 0.697385 -60.6931 -3.87029 2.51111 -117.13 29.1901 6.3723 -1.21156e-005 -4.65218e-006 4.86973e-006 -20.528 23.2872 5.19022 2.46719e-006 -1.0287e-005 2.99999 -8.02928 -4.95159 -0.697815 157.531 81.23 25.303 -180 1.52553e-005 178.767 177.896 73.9554 178.751 6.4777e-007 -6.66021e-007 1.70737 -17.7188 65.4473 17.5828 8.1365 25.2327 -3.48774 -107.584 72.2293 -74.023 4.5067e-006 -1.99009e-005 -0.865258 4.86894 -79.9019 8.00586 -1.37498e-006 -4.95266e-006 -1.89833 18.3263 66.5208 -18.3555 -8.13649 25.2327 3.48774 
54.2564 58.6426 -5.29296 -1.82414 0.60561 -2.87639 0.243838 -1.05672 0.216474 0.488341 1.89023 0.411829 0.483834 3.53525 0.403917 2.61576 16.3433 0.131133 -3.16318 -5.98286 0.540186 75.2185 4.18394 -0.0380252 98.8522 24.4 -15.4523 1.19575e-006 -1.22606e-006 2.25525e-006 20.6638 39.1473 -8.09584 -3.42296e-006 -8.58041e-006 -3 8.02898 -4.95084 0.697385 -60.6897 -3.84718 2.49697 -117.114 29.178 6.36341 -1.21156e-005 -4.65218e-006 4.86973e-006 -20.5309 23.3038 5.19483 2.46719e-006 -1.0287e-005 2.99999 -8.02928 -4.95159 -0.697815 157.517 81.2309 25.3168 -180 1.52553e-005 178.767 177.897 73.9567 178.75 6.4777e-007 -6.66021e-007 1.7074 -17.7185 65.4468 17.5831 8.1365 25.2327 -3.48774 -107.587 72.2301 -74.0193 4.5067e-006 -1.99009e-005 -0.865324 4.87313 -79.9026 8.00942 -1.37498e-006 -4.95266e-006 -1.89832 18.3259 66.5203 -18.3551 -8.13649 25.2327 3.48774 
